# File created by Blade
# Date/Time:  Wed Apr 08 17:24:25 2015
#---------------------------------------------------------
:version 1.10
:name HOM
:units
  mass 1.0
  length 1.000000
  angle deg
:documentation
     Acclaim Skeleton File
:root
   axis xyz
   order TX TY TZ RX RY RZ
   position 0.000000 0.000000 0.000000
   orientation 0 0 0
:bonedata
   begin
      id 1
      name Spine_dum
      direction 0.000000 1.000000 0.000000
      length 5.893853
      axis 0.0 0.0 0.0 xyz
   end
   begin
      id 2
      name LeftUpLeg_dum
      direction 1.000000 0.000000 0.000000
      length 3.697939
      axis 0.0 0.0 0.0 xyz
   end
   begin
      id 3
      name RightUpLeg_dum
      direction -1.000000 0.000000 0.000000
      length 3.697939
      axis 0.0 0.0 0.0 xyz
   end
   begin
      id 4
      name Spine
      direction 0.000000 1.000000 0.000000
      length 0.000000
      axis 0.0 0.0 0.0 xyz
      dof rx ry rz
   end
   begin
      id 5
      name Spine_dum1
      direction 0.000000 1.000000 0.000000
      length 16.447146
      axis 0.0 0.0 0.0 xyz
   end
   begin
      id 6
      name Spine_dum2
      direction 0.000000 1.000000 0.000000
      length 10.900383
      axis 0.0 0.0 0.0 xyz
   end
   begin
      id 7
      name Spine_dum3
      direction 0.000000 1.000000 0.000000
      length 10.900383
      axis 0.0 0.0 0.0 xyz
   end
   begin
      id 8
      name Head
      direction 0.000000 1.000000 0.000000
      length 4.527550
      axis 0.0 0.0 0.0 xyz
      dof rx ry rz
   end
   begin
      id 9
      name LeftShoulder
      direction 1.000000 0.000000 0.000000
      length 8.219464
      axis 0.0 0.0 -90.0 xyz
      dof rx ry rz
   end
   begin
      id 10
      name LeftArm
      direction 1.000000 0.000000 0.000000
      length 11.094937
      axis 0.0 0.0 -90.0 xyz
      dof rx ry rz
   end
   begin
      id 11
      name LeftForeArm
      direction 1.000000 0.000000 0.000000
      length 9.103875
      axis 0.0 0.0 -90.0 xyz
      dof ry rz rx
   end
   begin
      id 12
      name LeftHand
      direction 0.000000 0.000000 0.000000
      length 0.000000
      axis 0.0 0.0 -90.0 xyz
      dof rx ry rz
   end
   begin
      id 13
      name LeftHand_dum1
      direction 0.000000 0.000000 0.000000
      length 0.000000
      axis 0.0 0.0 -90.0 xyz
   end
   begin
      id 14
      name LeftHand_dum2
      direction 1.000000 0.000000 0.000000
      length 3.937000
      axis 0.0 0.0 -90.0 xyz
   end
   begin
      id 15
      name LeftHandThumb1
      direction 0.000000 0.000000 1.000000
      length 3.937000
      axis 0.0 0.0 -90.0 xyz
      dof rx rz ry
   end
   begin
      id 16
      name RightShoulder
      direction -1.000000 0.000000 0.000000
      length 8.219464
      axis 0.0 0.0 90.0 xyz
      dof rx ry rz
   end
   begin
      id 17
      name RightArm
      direction -1.000000 0.000000 0.000000
      length 11.094937
      axis 0.0 0.0 90.0 xyz
      dof rx ry rz
   end
   begin
      id 18
      name RightForeArm
      direction -1.000000 0.000000 0.000000
      length 9.103875
      axis 0.0 0.0 90.0 xyz
      dof ry rz rx
   end
   begin
      id 19
      name RightHand
      direction 0.000000 0.000000 0.000000
      length 0.000000
      axis 0.0 0.0 90.0 xyz
      dof rx ry rz
   end
   begin
      id 20
      name RightHand_dum1
      direction 0.000000 0.000000 0.000000
      length 0.000000
      axis 0.0 0.0 90.0 xyz
   end
   begin
      id 21
      name RightHand_dum2
      direction -1.000000 0.000000 0.000000
      length 3.937000
      axis 0.0 0.0 90.0 xyz
   end
   begin
      id 22
      name RightHandThumb1
      direction 0.000000 0.000000 1.000000
      length 3.937000
      axis 0.0 0.0 90.0 xyz
      dof rx rz ry
   end
   begin
      id 23
      name LeftUpLeg
      direction 0.000000 -1.000000 0.000000
      length 16.181467
      axis 0.0 0.0 0.0 xyz
      dof rx ry rz
   end
   begin
      id 24
      name LeftLeg
      direction 0.000000 -1.000000 0.000000
      length 16.501392
      axis 0.0 0.0 0.0 xyz
      dof rx ry rz
   end
   begin
      id 25
      name LeftFoot
      direction 0.000000 -0.258819 0.965926
      length 6.408245
      axis 15.0 0.0 0.0 xyz
      dof rx ry rz
   end
   begin
      id 26
      name LeftToeBase
      direction 0.000000 0.000000 1.000000
      length 2.952750
      axis 0.0 0.0 0.0 xyz
      dof rx ry rz
   end
   begin
      id 27
      name RightUpLeg
      direction 0.000000 -1.000000 0.000000
      length 16.181467
      axis 0.0 0.0 0.0 xyz
      dof rx ry rz
   end
   begin
      id 28
      name RightLeg
      direction 0.000000 -1.000000 0.000000
      length 16.501392
      axis 0.0 0.0 0.0 xyz
      dof rx ry rz
   end
   begin
      id 29
      name RightFoot
      direction 0.000000 -0.258819 0.965926
      length 6.408245
      axis 15.0 0.0 0.0 xyz
      dof rx ry rz
   end
   begin
      id 30
      name RightToeBase
      direction 0.000000 0.000000 1.000000
      length 2.952750
      axis 0.0 0.0 0.0 xyz
      dof rx ry rz
   end
:hierarchy
   begin
      root Spine_dum LeftUpLeg_dum RightUpLeg_dum
      Spine_dum Spine
      LeftUpLeg_dum LeftUpLeg
      RightUpLeg_dum RightUpLeg
      Spine Spine_dum1 Spine_dum2 Spine_dum3
      Spine_dum1 Head
      Spine_dum2 LeftShoulder
      Spine_dum3 RightShoulder
      LeftShoulder LeftArm
      LeftArm LeftForeArm
      LeftForeArm LeftHand
      LeftHand LeftHand_dum1 LeftHand_dum2
      LeftHand_dum1 LeftHandThumb1
      RightShoulder RightArm
      RightArm RightForeArm
      RightForeArm RightHand
      RightHand RightHand_dum1 RightHand_dum2
      RightHand_dum1 RightHandThumb1
      LeftUpLeg LeftLeg
      LeftLeg LeftFoot
      LeftFoot LeftToeBase
      RightUpLeg RightLeg
      RightLeg RightFoot
      RightFoot RightToeBase
   end

# File created by Blade
# Date/Time:  Wed Apr 08 17:24:36 2015
# Frame Rate: 120.000 fps
#------------------------------------------------------
:FULLY-SPECIFIED
:DEGREES
211
root 6.867466 36.939929 1.527258 -17.857418 -50.665758 -19.821722
Spine 46.363538 -4.374184 11.079198
Head -11.243829 20.923848 0.335128
LeftShoulder -1.317797 13.234233 17.622674
LeftArm 34.683520 23.989597 -74.292451
LeftForeArm 14.720895 -0.000000 37.002579
LeftHand -10.074901 0.000000 -7.951508
LeftHandThumb1 -26.253704 0.000000 33.147579
RightShoulder -21.245429 -46.304444 7.686897
RightArm 59.292751 -2.069522 56.747290
RightForeArm 31.006045 -0.000000 35.483966
RightHand 2.780976 -0.000000 11.100711
RightHandThumb1 -24.326973 -0.000000 -32.862282
LeftUpLeg 30.646884 12.744355 18.637458
LeftLeg 16.975484 -0.000000 -0.000000
LeftFoot -14.525527 2.215310 -1.827339
LeftToeBase 5.050549 -0.000000 -0.000000
RightUpLeg -79.395857 -8.512084 12.676308
RightLeg 134.047441 -0.000000 -0.000000
RightFoot 3.111493 9.516446 17.297002
RightToeBase -5.051084 -0.000000 0.000000
212
root 6.823415 36.947566 1.538989 -18.351892 -50.560183 -20.063546
Spine 46.996182 -4.288216 11.244898
Head -11.337457 20.908397 0.564019
LeftShoulder -1.062487 12.956165 17.879922
LeftArm 35.396995 24.313604 -73.999221
LeftForeArm 14.498178 -0.000000 38.047826
LeftHand -9.925285 0.000000 -7.931502
LeftHandThumb1 -26.253704 0.000000 33.147579
RightShoulder -20.703245 -46.057029 7.365798
RightArm 59.859289 -1.867612 56.702759
RightForeArm 31.780683 -0.000000 35.654697
RightHand 3.038447 -0.000000 11.877255
RightHandThumb1 -24.326973 -0.000000 -32.862282
LeftUpLeg 31.190379 12.703358 19.224492
LeftLeg 17.335916 -0.000000 -0.000000
LeftFoot -14.600888 1.784730 -1.797215
LeftToeBase 5.001268 -0.000000 -0.000000
RightUpLeg -79.784257 -8.188948 13.098207
RightLeg 134.255924 -0.000000 -0.000000
RightFoot 3.118749 9.391364 17.056916
RightToeBase -5.196971 -0.000000 0.000000
213
root 6.782986 36.955443 1.564633 -19.013972 -50.417476 -20.169089
Spine 47.673007 -4.222427 11.337316
Head -11.453298 20.917093 0.777622
LeftShoulder -0.779502 12.646539 18.135417
LeftArm 36.195460 24.716374 -73.616364
LeftForeArm 14.387093 -0.000000 38.999729
LeftHand -9.779989 -0.000000 -7.805745
LeftHandThumb1 -26.253704 0.000000 33.147579
RightShoulder -20.195423 -45.766230 7.082148
RightArm 60.409314 -1.627694 56.684378
RightForeArm 32.167107 -0.000000 35.939392
RightHand 2.956201 -0.000000 12.357821
RightHandThumb1 -24.326973 -0.000000 -32.862282
LeftUpLeg 31.810496 12.707346 19.762882
LeftLeg 17.682329 -0.000000 -0.000000
LeftFoot -14.654428 1.314585 -1.739273
LeftToeBase 4.947571 -0.000000 -0.000000
RightUpLeg -80.018240 -7.947556 13.382609
RightLeg 134.492827 -0.000000 -0.000000
RightFoot 2.984692 9.240809 16.661653
RightToeBase -5.029360 -0.000000 0.000000
214
root 6.757312 36.950163 1.583702 -19.478607 -50.210928 -20.153552
Spine 48.022733 -4.142072 11.351138
Head -11.524777 20.919117 0.966911
LeftShoulder -0.504375 12.406152 18.306617
LeftArm 37.050292 25.037175 -73.161149
LeftForeArm 13.970735 -0.000000 39.977686
LeftHand -9.778481 0.000000 -7.813193
LeftHandThumb1 -26.253704 0.000000 33.147579
RightShoulder -19.731015 -45.478264 6.853484
RightArm 61.029555 -1.408585 56.586769
RightForeArm 32.613429 -0.000000 36.163135
RightHand 2.943394 0.000000 12.816561
RightHandThumb1 -24.326973 -0.000000 -32.862282
LeftUpLeg 32.056505 12.762520 20.097652
LeftLeg 18.108971 -0.000000 -0.000000
LeftFoot -14.748661 0.963084 -1.551997
LeftToeBase 4.826210 -0.000000 -0.000000
RightUpLeg -80.491874 -7.682729 13.584098
RightLeg 134.694070 -0.000000 -0.000000
RightFoot 2.988857 9.220934 16.579891
RightToeBase -5.260714 -0.000000 0.000000
215
root 6.724366 36.952608 1.616678 -20.158912 -50.028109 -20.121419
Spine 48.568366 -4.095666 11.350440
Head -11.576633 20.949132 1.130554
LeftShoulder -0.203769 12.126083 18.534436
LeftArm 37.870289 25.444650 -72.715037
LeftForeArm 13.538627 -0.000000 40.951982
LeftHand -9.734375 -0.000000 -7.623736
LeftHandThumb1 -26.253704 0.000000 33.147579
RightShoulder -19.231972 -45.231762 6.586528
RightArm 61.620608 -1.182396 56.376029
RightForeArm 33.116766 -0.000000 36.557898
RightHand 2.898761 -0.000000 13.291211
RightHandThumb1 -24.326973 -0.000000 -32.862282
LeftUpLeg 32.576560 12.774637 20.482491
LeftLeg 18.436657 -0.000000 -0.000000
LeftFoot -14.755626 0.605732 -1.408105
LeftToeBase 4.691514 -0.000000 -0.000000
RightUpLeg -80.660942 -7.524872 13.756496
RightLeg 134.870544 -0.000000 -0.000000
RightFoot 3.049103 9.152367 16.388021
RightToeBase -5.179197 -0.000000 0.000000
